<svg xmlns="http://www.w3.org/2000/svg" xmlns:xlink="http://www.w3.org/1999/xlink" viewBox="0 0 191.32 272.57"><defs><style>.cls-1{fill:url(#linear-gradient);}.cls-2{fill:#191919;}</style><linearGradient id="linear-gradient" x1="95.66" y1="272.57" x2="95.66" y2="272.57" gradientUnits="userSpaceOnUse"><stop offset="0" stop-color="#fff"/><stop offset="1" stop-color="#191919"/></linearGradient></defs><title>Asset 1</title><g id="Layer_2" data-name="Layer 2"><g id="Layer_1-2" data-name="Layer 1"><path class="cls-1" d="M174,272.57H17.33"/><path class="cls-2" d="M174,0H17.33A17.33,17.33,0,0,0,0,17.33V255.24a17.33,17.33,0,0,0,17.33,17.33H174a17.33,17.33,0,0,0,17.33-17.33V17.33A17.33,17.33,0,0,0,174,0ZM59.79,243.5a4.16,4.16,0,0,1-4.16,4.16H25.51a4.16,4.16,0,0,1-4.16-4.16V213.38a4.16,4.16,0,0,1,4.16-4.16H55.63a4.16,4.16,0,0,1,4.16,4.16Zm0-51.63A4.16,4.16,0,0,1,55.63,196H25.51a4.16,4.16,0,0,1-4.16-4.16V161.75a4.16,4.16,0,0,1,4.16-4.16H55.63a4.16,4.16,0,0,1,4.16,4.16Zm0-51.62a4.16,4.16,0,0,1-4.16,4.16H25.51a4.16,4.16,0,0,1-4.16-4.16V110.13A4.16,4.16,0,0,1,25.51,106H55.63a4.16,4.16,0,0,1,4.16,4.16ZM114.84,243.5a4.16,4.16,0,0,1-4.15,4.16H80.57a4.16,4.16,0,0,1-4.16-4.16V213.38a4.16,4.16,0,0,1,4.16-4.16h30.12a4.15,4.15,0,0,1,4.15,4.16Zm0-51.63a4.15,4.15,0,0,1-4.15,4.16H80.57a4.16,4.16,0,0,1-4.16-4.16V161.75a4.16,4.16,0,0,1,4.16-4.16h30.12a4.16,4.16,0,0,1,4.15,4.16Zm0-51.62a4.16,4.16,0,0,1-4.15,4.16H80.57a4.16,4.16,0,0,1-4.16-4.16V110.13A4.16,4.16,0,0,1,80.57,106h30.12a4.15,4.15,0,0,1,4.15,4.16ZM169.9,243.5a4.16,4.16,0,0,1-4.15,4.16H135.62a4.16,4.16,0,0,1-4.15-4.16V161.75a4.16,4.16,0,0,1,4.15-4.16h30.13a4.16,4.16,0,0,1,4.15,4.16Zm0-103.25a4.16,4.16,0,0,1-4.15,4.16H135.62a4.16,4.16,0,0,1-4.15-4.16V110.13a4.15,4.15,0,0,1,4.15-4.16h30.13a4.15,4.15,0,0,1,4.15,4.16Zm0-73.68A5.41,5.41,0,0,1,164.49,72H26.83a5.41,5.41,0,0,1-5.41-5.41V27.12a5.41,5.41,0,0,1,5.41-5.41H164.49a5.41,5.41,0,0,1,5.41,5.41Z"/><polygon class="cls-2" points="109.99 37.52 113.67 37.52 113.67 58.66 115.99 58.66 115.99 35.23 111.4 35.23 109.99 37.52"/><path class="cls-2" d="M131.71,50.37a26.81,26.81,0,0,0,3.72-4.73,7.75,7.75,0,0,0,.94-3.74,7,7,0,0,0-7.22-7,7.48,7.48,0,0,0-5.48,2.23,8.08,8.08,0,0,0-2.32,5.72h2.26a6.46,6.46,0,0,1,1.69-4.2,5,5,0,0,1,3.73-1.5,5,5,0,0,1,3.6,1.42A4.57,4.57,0,0,1,134.1,42a5.87,5.87,0,0,1-.81,3,29.8,29.8,0,0,1-3.55,4.33L120.8,58.6h15.91V56.34H125.9Z"/><path class="cls-2" d="M150.4,45.68a5.38,5.38,0,0,0,3-4.81,5.58,5.58,0,0,0-.87-2.95,6.33,6.33,0,0,0-2.46-2.26,7.14,7.14,0,0,0-3.41-.84,6.52,6.52,0,0,0-4.37,1.56,8.06,8.06,0,0,0-2.51,4.48h2.39A6.39,6.39,0,0,1,144.05,38a4.17,4.17,0,0,1,2.63-.85,4.37,4.37,0,0,1,3.07,1.12A3.47,3.47,0,0,1,151,40.87a3.32,3.32,0,0,1-.6,1.91,4.17,4.17,0,0,1-1.91,1.44,7.41,7.41,0,0,1-2.92.55v2.17a16.5,16.5,0,0,1,4,.58,4,4,0,0,1,2.11,1.65,3.72,3.72,0,0,1,.72,2.3,4.91,4.91,0,0,1-1.55,3.6,5.64,5.64,0,0,1-4.11,1.52,5.29,5.29,0,0,1-3.67-1.29A6.71,6.71,0,0,1,141.32,52H139a8.56,8.56,0,0,0,2.65,5.11,7.38,7.38,0,0,0,5,1.75,8.33,8.33,0,0,0,4.06-1,7.22,7.22,0,0,0,2.87-2.8,7.44,7.44,0,0,0,1-3.8,5.77,5.77,0,0,0-1.53-3.6A6.72,6.72,0,0,0,150.4,45.68Z"/></g></g></svg>